<?xml version="1.0" encoding="UTF-8"?>
<svg xmlns="http://www.w3.org/2000/svg" xmlns:xlink="http://www.w3.org/1999/xlink" width="328.729351pt" height="328.729351pt" viewBox="0 0 328.729351 328.729351" version="1.1" id="Fig:pca"><defs><g><symbol overflow="visible" id="pca-glyph0-0"><path style="stroke:none;" d="M 2.296875 -3.859375 L 5.15625 -3.859375 C 5.875 -3.859375 6.4375 -4.078125 6.921875 -4.515625 C 7.46875 -5.015625 7.71875 -5.59375 7.71875 -6.4375 C 7.71875 -8.15625 6.703125 -9.109375 4.90625 -9.109375 L 1.140625 -9.109375 L 1.140625 0 L 2.296875 0 Z M 2.296875 -4.890625 L 2.296875 -8.09375 L 4.71875 -8.09375 C 5.84375 -8.09375 6.5 -7.484375 6.5 -6.484375 C 6.5 -5.484375 5.84375 -4.890625 4.71875 -4.890625 Z M 2.296875 -4.890625 "/></symbol><symbol overflow="visible" id="pca-glyph0-1"><path style="stroke:none;" d="M 8.28125 -6.28125 C 7.90625 -8.28125 6.765625 -9.265625 4.765625 -9.265625 C 3.53125 -9.265625 2.546875 -8.875 1.875 -8.125 C 1.046875 -7.21875 0.59375 -5.921875 0.59375 -4.453125 C 0.59375 -2.953125 1.0625 -1.65625 1.921875 -0.78125 C 2.625 -0.046875 3.53125 0.28125 4.71875 0.28125 C 6.9375 0.28125 8.1875 -0.90625 8.46875 -3.328125 L 7.265625 -3.328125 C 7.15625 -2.703125 7.03125 -2.28125 6.84375 -1.90625 C 6.46875 -1.15625 5.703125 -0.734375 4.71875 -0.734375 C 2.90625 -0.734375 1.765625 -2.1875 1.765625 -4.46875 C 1.765625 -6.796875 2.859375 -8.234375 4.625 -8.234375 C 5.359375 -8.234375 6.046875 -8.015625 6.421875 -7.65625 C 6.765625 -7.34375 6.953125 -6.96875 7.09375 -6.28125 Z M 8.28125 -6.28125 "/></symbol><symbol overflow="visible" id="pca-glyph0-2"><path style="stroke:none;" d="M 3.234375 -6.3125 L 3.234375 0 L 4.34375 0 L 4.34375 -8.859375 L 3.609375 -8.859375 C 3.21875 -7.5 2.96875 -7.3125 1.28125 -7.09375 L 1.28125 -6.3125 Z M 3.234375 -6.3125 "/></symbol><symbol overflow="visible" id="pca-glyph1-0"><path style="stroke:none;" d="M -3.859375 -2.296875 L -3.859375 -5.15625 C -3.859375 -5.875 -4.078125 -6.4375 -4.515625 -6.921875 C -5.015625 -7.46875 -5.59375 -7.71875 -6.4375 -7.71875 C -8.15625 -7.71875 -9.109375 -6.703125 -9.109375 -4.90625 L -9.109375 -1.140625 L 0 -1.140625 L 0 -2.296875 Z M -4.890625 -2.296875 L -8.09375 -2.296875 L -8.09375 -4.71875 C -8.09375 -5.84375 -7.484375 -6.5 -6.484375 -6.5 C -5.484375 -6.5 -4.890625 -5.84375 -4.890625 -4.71875 Z M -4.890625 -2.296875 "/></symbol><symbol overflow="visible" id="pca-glyph1-1"><path style="stroke:none;" d="M -6.28125 -8.28125 C -8.28125 -7.90625 -9.265625 -6.765625 -9.265625 -4.765625 C -9.265625 -3.53125 -8.875 -2.546875 -8.125 -1.875 C -7.21875 -1.046875 -5.921875 -0.59375 -4.453125 -0.59375 C -2.953125 -0.59375 -1.65625 -1.0625 -0.78125 -1.921875 C -0.046875 -2.625 0.28125 -3.53125 0.28125 -4.71875 C 0.28125 -6.9375 -0.90625 -8.1875 -3.328125 -8.46875 L -3.328125 -7.265625 C -2.703125 -7.15625 -2.28125 -7.03125 -1.90625 -6.84375 C -1.15625 -6.46875 -0.734375 -5.703125 -0.734375 -4.71875 C -0.734375 -2.90625 -2.1875 -1.765625 -4.46875 -1.765625 C -6.796875 -1.765625 -8.234375 -2.859375 -8.234375 -4.625 C -8.234375 -5.359375 -8.015625 -6.046875 -7.65625 -6.421875 C -7.34375 -6.765625 -6.96875 -6.953125 -6.28125 -7.09375 Z M -6.28125 -8.28125 "/></symbol><symbol overflow="visible" id="pca-glyph1-2"><path style="stroke:none;" d="M -1.09375 -6.328125 L -1.09375 -1.65625 C -1.8125 -1.78125 -2.28125 -2.171875 -2.90625 -3.265625 L -3.59375 -4.515625 C -4.265625 -5.75 -5.171875 -6.390625 -6.265625 -6.390625 C -7 -6.390625 -7.6875 -6.09375 -8.15625 -5.5625 C -8.640625 -5.03125 -8.859375 -4.390625 -8.859375 -3.546875 C -8.859375 -2.421875 -8.46875 -1.59375 -7.71875 -1.09375 C -7.234375 -0.78125 -6.6875 -0.65625 -5.78125 -0.625 L -5.78125 -1.71875 C -6.390625 -1.765625 -6.75 -1.84375 -7.03125 -1.984375 C -7.578125 -2.28125 -7.90625 -2.84375 -7.90625 -3.515625 C -7.90625 -4.515625 -7.1875 -5.265625 -6.234375 -5.265625 C -5.53125 -5.265625 -4.9375 -4.84375 -4.484375 -4.0625 L -3.84375 -2.90625 C -2.78125 -1.0625 -1.953125 -0.53125 0 -0.421875 L 0 -6.328125 Z M -1.09375 -6.328125 "/></symbol><symbol overflow="visible" id="pca-glyph2-0"><path style="stroke:none;" d="M 2.859375 -3.15625 L 0.46875 -3.15625 L 0.46875 -2.421875 L 2.859375 -2.421875 Z M 2.859375 -3.15625 "/></symbol><symbol overflow="visible" id="pca-glyph2-1"><path style="stroke:none;" d="M 3.296875 -1.71875 L 3.296875 0 L 4.1875 0 L 4.1875 -1.71875 L 5.25 -1.71875 L 5.25 -2.515625 L 4.1875 -2.515625 L 4.1875 -7.15625 L 3.53125 -7.15625 L 0.28125 -2.65625 L 0.28125 -1.71875 Z M 3.296875 -2.515625 L 1.0625 -2.515625 L 3.296875 -5.640625 Z M 3.296875 -2.515625 "/></symbol><symbol overflow="visible" id="pca-glyph2-2"><path style="stroke:none;" d="M 2.78125 -7.15625 C 2.109375 -7.15625 1.5 -6.859375 1.125 -6.375 C 0.671875 -5.75 0.4375 -4.78125 0.4375 -3.46875 C 0.4375 -1.046875 1.234375 0.234375 2.78125 0.234375 C 4.296875 0.234375 5.125 -1.046875 5.125 -3.40625 C 5.125 -4.796875 4.890625 -5.71875 4.421875 -6.375 C 4.046875 -6.875 3.453125 -7.15625 2.78125 -7.15625 Z M 2.78125 -6.375 C 3.734375 -6.375 4.203125 -5.40625 4.203125 -3.484375 C 4.203125 -1.453125 3.75 -0.5 2.75 -0.5 C 1.8125 -0.5 1.34375 -1.5 1.34375 -3.453125 C 1.34375 -5.40625 1.8125 -6.375 2.78125 -6.375 Z M 2.78125 -6.375 "/></symbol><symbol overflow="visible" id="pca-glyph2-3"><path style="stroke:none;" d="M 5.109375 -0.875 L 1.34375 -0.875 C 1.4375 -1.46875 1.75 -1.84375 2.640625 -2.359375 L 3.640625 -2.890625 C 4.640625 -3.4375 5.15625 -4.171875 5.15625 -5.0625 C 5.15625 -5.65625 4.921875 -6.203125 4.484375 -6.59375 C 4.0625 -6.96875 3.546875 -7.15625 2.859375 -7.15625 C 1.953125 -7.15625 1.28125 -6.828125 0.890625 -6.234375 C 0.640625 -5.84375 0.53125 -5.40625 0.5 -4.671875 L 1.390625 -4.671875 C 1.421875 -5.15625 1.484375 -5.453125 1.609375 -5.6875 C 1.84375 -6.109375 2.296875 -6.375 2.84375 -6.375 C 3.640625 -6.375 4.25 -5.796875 4.25 -5.03125 C 4.25 -4.46875 3.921875 -3.984375 3.28125 -3.625 L 2.359375 -3.09375 C 0.859375 -2.25 0.421875 -1.578125 0.34375 0 L 5.109375 0 Z M 5.109375 -0.875 "/></symbol></g><clipPath id="pca-clip1"><path d="M 58.316406 51.355469 L 300.722656 51.355469 L 300.722656 261.90625 L 58.316406 261.90625 Z M 58.316406 51.355469 "/></clipPath></defs><g id="surface31"><g style="fill:rgb(0%,0%,0%);fill-opacity:1;"><use xlink:href="#pca-glyph0-0" x="166.863281" y="300.382812"/><use xlink:href="#pca-glyph0-1" x="175.200806" y="300.382812"/><use xlink:href="#pca-glyph0-2" x="184.225845" y="300.382812"/></g><g style="fill:rgb(0%,0%,0%);fill-opacity:1;"><use xlink:href="#pca-glyph1-0" x="15.109375" y="168.285156"/><use xlink:href="#pca-glyph1-1" x="15.109375" y="159.947632"/><use xlink:href="#pca-glyph1-2" x="15.109375" y="150.922592"/></g><path style="fill:none;stroke-width:1;stroke-linecap:round;stroke-linejoin:round;stroke:rgb(0%,0%,0%);stroke-opacity:1;stroke-miterlimit:10;" d="M 59.277344 51.355469 L 59.277344 45.683594 "/><path style="fill:none;stroke-width:1;stroke-linecap:round;stroke-linejoin:round;stroke:rgb(0%,0%,0%);stroke-opacity:1;stroke-miterlimit:10;" d="M 108.09375 51.355469 L 108.09375 45.683594 "/><path style="fill:none;stroke-width:1;stroke-linecap:round;stroke-linejoin:round;stroke:rgb(0%,0%,0%);stroke-opacity:1;stroke-miterlimit:10;" d="M 156.90625 51.355469 L 156.90625 45.683594 "/><path style="fill:none;stroke-width:1;stroke-linecap:round;stroke-linejoin:round;stroke:rgb(0%,0%,0%);stroke-opacity:1;stroke-miterlimit:10;" d="M 205.722656 51.355469 L 205.722656 45.683594 "/><path style="fill:none;stroke-width:1;stroke-linecap:round;stroke-linejoin:round;stroke:rgb(0%,0%,0%);stroke-opacity:1;stroke-miterlimit:10;" d="M 254.539062 51.355469 L 254.539062 45.683594 "/><path style="fill:none;stroke-width:1;stroke-linecap:round;stroke-linejoin:round;stroke:rgb(0%,0%,0%);stroke-opacity:1;stroke-miterlimit:10;" d="M 58.316406 244.160156 L 52.644531 244.160156 "/><path style="fill:none;stroke-width:1;stroke-linecap:round;stroke-linejoin:round;stroke:rgb(0%,0%,0%);stroke-opacity:1;stroke-miterlimit:10;" d="M 58.316406 195.34375 L 52.644531 195.34375 "/><path style="fill:none;stroke-width:1;stroke-linecap:round;stroke-linejoin:round;stroke:rgb(0%,0%,0%);stroke-opacity:1;stroke-miterlimit:10;" d="M 58.316406 146.53125 L 52.644531 146.53125 "/><path style="fill:none;stroke-width:1;stroke-linecap:round;stroke-linejoin:round;stroke:rgb(0%,0%,0%);stroke-opacity:1;stroke-miterlimit:10;" d="M 58.316406 97.714844 L 52.644531 97.714844 "/><g style="fill:rgb(0%,0%,0%);fill-opacity:1;"><use xlink:href="#pca-glyph2-0" x="26.777344" y="247.839844"/><use xlink:href="#pca-glyph2-1" x="30.13855" y="247.839844"/><use xlink:href="#pca-glyph2-2" x="35.750641" y="247.839844"/><use xlink:href="#pca-glyph2-2" x="41.362732" y="247.839844"/></g><g style="fill:rgb(0%,0%,0%);fill-opacity:1;"><use xlink:href="#pca-glyph2-0" x="26.777344" y="199.023438"/><use xlink:href="#pca-glyph2-3" x="30.13855" y="199.023438"/><use xlink:href="#pca-glyph2-2" x="35.750641" y="199.023438"/><use xlink:href="#pca-glyph2-2" x="41.362732" y="199.023438"/></g><g style="fill:rgb(0%,0%,0%);fill-opacity:1;"><use xlink:href="#pca-glyph2-2" x="41.363281" y="150.210938"/></g><g style="fill:rgb(0%,0%,0%);fill-opacity:1;"><use xlink:href="#pca-glyph2-3" x="30.140625" y="101.394531"/><use xlink:href="#pca-glyph2-2" x="35.752716" y="101.394531"/><use xlink:href="#pca-glyph2-2" x="41.364807" y="101.394531"/></g><path style="fill:none;stroke-width:1;stroke-linecap:round;stroke-linejoin:round;stroke:rgb(0%,0%,0%);stroke-opacity:1;stroke-miterlimit:10;" d="M 59.277344 260.90625 L 59.277344 266.574219 "/><path style="fill:none;stroke-width:1;stroke-linecap:round;stroke-linejoin:round;stroke:rgb(0%,0%,0%);stroke-opacity:1;stroke-miterlimit:10;" d="M 108.09375 260.90625 L 108.09375 266.574219 "/><path style="fill:none;stroke-width:1;stroke-linecap:round;stroke-linejoin:round;stroke:rgb(0%,0%,0%);stroke-opacity:1;stroke-miterlimit:10;" d="M 156.90625 260.90625 L 156.90625 266.574219 "/><path style="fill:none;stroke-width:1;stroke-linecap:round;stroke-linejoin:round;stroke:rgb(0%,0%,0%);stroke-opacity:1;stroke-miterlimit:10;" d="M 205.722656 260.90625 L 205.722656 266.574219 "/><path style="fill:none;stroke-width:1;stroke-linecap:round;stroke-linejoin:round;stroke:rgb(0%,0%,0%);stroke-opacity:1;stroke-miterlimit:10;" d="M 254.539062 260.90625 L 254.539062 266.574219 "/><g style="fill:rgb(0%,0%,0%);fill-opacity:1;"><use xlink:href="#pca-glyph2-0" x="97.996094" y="279.605469"/><use xlink:href="#pca-glyph2-3" x="101.3573" y="279.605469"/><use xlink:href="#pca-glyph2-2" x="106.969391" y="279.605469"/><use xlink:href="#pca-glyph2-2" x="112.581482" y="279.605469"/></g><g style="fill:rgb(0%,0%,0%);fill-opacity:1;"><use xlink:href="#pca-glyph2-2" x="154.101562" y="279.605469"/></g><g style="fill:rgb(0%,0%,0%);fill-opacity:1;"><use xlink:href="#pca-glyph2-3" x="197.304688" y="279.605469"/><use xlink:href="#pca-glyph2-2" x="202.916779" y="279.605469"/><use xlink:href="#pca-glyph2-2" x="208.52887" y="279.605469"/></g><g style="fill:rgb(0%,0%,0%);fill-opacity:1;"><use xlink:href="#pca-glyph2-1" x="246.121094" y="279.605469"/><use xlink:href="#pca-glyph2-2" x="251.733185" y="279.605469"/><use xlink:href="#pca-glyph2-2" x="257.345276" y="279.605469"/></g><path style="fill:none;stroke-width:1;stroke-linecap:round;stroke-linejoin:round;stroke:rgb(0%,0%,0%);stroke-opacity:1;stroke-miterlimit:10;" d="M 299.722656 244.160156 L 305.390625 244.160156 "/><path style="fill:none;stroke-width:1;stroke-linecap:round;stroke-linejoin:round;stroke:rgb(0%,0%,0%);stroke-opacity:1;stroke-miterlimit:10;" d="M 299.722656 195.34375 L 305.390625 195.34375 "/><path style="fill:none;stroke-width:1;stroke-linecap:round;stroke-linejoin:round;stroke:rgb(0%,0%,0%);stroke-opacity:1;stroke-miterlimit:10;" d="M 299.722656 146.53125 L 305.390625 146.53125 "/><path style="fill:none;stroke-width:1;stroke-linecap:round;stroke-linejoin:round;stroke:rgb(0%,0%,0%);stroke-opacity:1;stroke-miterlimit:10;" d="M 299.722656 97.714844 L 305.390625 97.714844 "/><g clip-path="url(#pca-clip1)" clip-rule="nonzero" type="plot-region" class="plot-region"><path d="M 85.195312 90.460938 C 85.195312 95.128906 78.195312 95.128906 78.195312 90.460938 C 78.195312 85.792969 85.195312 85.792969 85.195312 90.460938 " type="plot-point" class="aqm1" onclick="plotObjRespond('click', 1, 'pca')" onmouseover="plotObjRespond('show', 1, 'pca')" onmouseout="plotObjRespond('hide', 1, 'pca')" fill-rule="nonzero" fill="rgb(12.156863%,47.058824%,70.588235%)" fill-opacity="1" stroke-width="1" stroke-linecap="round" stroke-linejoin="round" stroke="rgb(12.156863%,47.058824%,70.588235%)" stroke-opacity="1" stroke-miterlimit="10"/><path d="M 76.636719 248.039062 C 76.636719 252.707031 69.636719 252.707031 69.636719 248.039062 C 69.636719 243.371094 76.636719 243.371094 76.636719 248.039062 " type="plot-point" class="aqm2" onclick="plotObjRespond('click', 2, 'pca')" onmouseover="plotObjRespond('show', 2, 'pca')" onmouseout="plotObjRespond('hide', 2, 'pca')" fill-rule="nonzero" fill="rgb(12.156863%,47.058824%,70.588235%)" fill-opacity="1" stroke-width="1" stroke-linecap="round" stroke-linejoin="round" stroke="rgb(12.156863%,47.058824%,70.588235%)" stroke-opacity="1" stroke-miterlimit="10"/><path d="M 260.726562 168.601562 C 260.726562 173.269531 253.726562 173.269531 253.726562 168.601562 C 253.726562 163.9375 260.726562 163.9375 260.726562 168.601562 " type="plot-point" class="aqm3" onclick="plotObjRespond('click', 3, 'pca')" onmouseover="plotObjRespond('show', 3, 'pca')" onmouseout="plotObjRespond('hide', 3, 'pca')" fill-rule="nonzero" fill="rgb(12.156863%,47.058824%,70.588235%)" fill-opacity="1" stroke-width="1" stroke-linecap="round" stroke-linejoin="round" stroke="rgb(12.156863%,47.058824%,70.588235%)" stroke-opacity="1" stroke-miterlimit="10"/><path d="M 76.683594 118.648438 C 76.683594 123.316406 69.683594 123.316406 69.683594 118.648438 C 69.683594 113.984375 76.683594 113.984375 76.683594 118.648438 " type="plot-point" class="aqm4" onclick="plotObjRespond('click', 4, 'pca')" onmouseover="plotObjRespond('show', 4, 'pca')" onmouseout="plotObjRespond('hide', 4, 'pca')" fill-rule="nonzero" fill="rgb(12.156863%,47.058824%,70.588235%)" fill-opacity="1" stroke-width="1" stroke-linecap="round" stroke-linejoin="round" stroke="rgb(12.156863%,47.058824%,70.588235%)" stroke-opacity="1" stroke-miterlimit="10"/><path d="M 159.648438 216.804688 C 159.648438 221.46875 152.648438 221.46875 152.648438 216.804688 C 152.648438 212.136719 159.648438 212.136719 159.648438 216.804688 " type="plot-point" class="aqm5" onclick="plotObjRespond('click', 5, 'pca')" onmouseover="plotObjRespond('show', 5, 'pca')" onmouseout="plotObjRespond('hide', 5, 'pca')" fill-rule="nonzero" fill="rgb(12.156863%,47.058824%,70.588235%)" fill-opacity="1" stroke-width="1" stroke-linecap="round" stroke-linejoin="round" stroke="rgb(12.156863%,47.058824%,70.588235%)" stroke-opacity="1" stroke-miterlimit="10"/><path d="M 150.292969 107.40625 C 150.292969 112.074219 143.292969 112.074219 143.292969 107.40625 C 143.292969 102.738281 150.292969 102.738281 150.292969 107.40625 " type="plot-point" class="aqm6" onclick="plotObjRespond('click', 6, 'pca')" onmouseover="plotObjRespond('show', 6, 'pca')" onmouseout="plotObjRespond('hide', 6, 'pca')" fill-rule="nonzero" fill="rgb(12.156863%,47.058824%,70.588235%)" fill-opacity="1" stroke-width="1" stroke-linecap="round" stroke-linejoin="round" stroke="rgb(12.156863%,47.058824%,70.588235%)" stroke-opacity="1" stroke-miterlimit="10"/><path d="M 288.398438 158.058594 C 288.398438 162.726562 281.398438 162.726562 281.398438 158.058594 C 281.398438 153.390625 288.398438 153.390625 288.398438 158.058594 " type="plot-point" class="aqm7" onclick="plotObjRespond('click', 7, 'pca')" onmouseover="plotObjRespond('show', 7, 'pca')" onmouseout="plotObjRespond('hide', 7, 'pca')" fill-rule="nonzero" fill="rgb(12.156863%,47.058824%,70.588235%)" fill-opacity="1" stroke-width="1" stroke-linecap="round" stroke-linejoin="round" stroke="rgb(12.156863%,47.058824%,70.588235%)" stroke-opacity="1" stroke-miterlimit="10"/><path d="M 185.683594 64.222656 C 185.683594 68.886719 178.683594 68.886719 178.683594 64.222656 C 178.683594 59.554688 185.683594 59.554688 185.683594 64.222656 " type="plot-point" class="aqm8" onclick="plotObjRespond('click', 8, 'pca')" onmouseover="plotObjRespond('show', 8, 'pca')" onmouseout="plotObjRespond('hide', 8, 'pca')" fill-rule="nonzero" fill="rgb(12.156863%,47.058824%,70.588235%)" fill-opacity="1" stroke-width="1" stroke-linecap="round" stroke-linejoin="round" stroke="rgb(12.156863%,47.058824%,70.588235%)" stroke-opacity="1" stroke-miterlimit="10"/></g><path style="fill:none;stroke-width:1;stroke-linecap:round;stroke-linejoin:round;stroke:rgb(0%,0%,0%);stroke-opacity:1;stroke-miterlimit:10;" d="M 58.316406 51.355469 L 299.722656 51.355469 L 299.722656 260.90625 L 58.316406 260.90625 Z M 58.316406 51.355469 "/></g></svg>
